<?xml version="1.0" encoding="UTF-8"?>
<svg width="60px" height="60px" viewBox="0 0 60 60" version="1.1" xmlns="http://www.w3.org/2000/svg" xmlns:xlink="http://www.w3.org/1999/xlink">
    <title>Group 2</title>
    <defs>
        <path d="M30,59.9732143 C46.5535714,59.9732143 59.9732143,46.5535714 59.9732143,30 C59.9732143,13.4462679 46.5535714,0.0267857143 30,0.0267857143 C13.4462679,0.0267857143 0.0267857143,13.4462679 0.0267857143,30 C0.0267857143,46.5535714 13.4462679,59.9732143 30,59.9732143 Z" id="path-1"></path>
        <polygon id="path-3" points="0.500839286 27.2801786 13.3645179 27.2801786 13.3645179 0.529928571 0.500839286 0.529928571"></polygon>
        <polygon id="path-5" points="10.6510714 5.47232143 10.6510714 0.439232143 0.419464286 0.439232143 0.419464286 5.47232143"></polygon>
        <polygon id="path-7" points="27.7673036 0.300964286 0.0250714286 0.300964286 0.0250714286 15.8605714 27.7673036 15.8605714"></polygon>
    </defs>
    <g id="Symbols" stroke="none" stroke-width="1" fill="none" fill-rule="evenodd">
        <g id="header" transform="translate(-104.000000, -20.000000)">
            <g id="Group-2" transform="translate(104.000000, 20.000000)">
                <g id="Clipped">
                    <mask id="mask-2" fill="white">
                        <use xlink:href="#path-1"></use>
                    </mask>
                    <g id="Path"></g>
                    <g id="Group" mask="url(#mask-2)">
                        <path d="M30,59.9732143 C46.5535714,59.9732143 59.9732143,46.5535714 59.9732143,30 C59.9732143,13.4462679 46.5535714,0.0267857143 30,0.0267857143 C13.4462679,0.0267857143 0.0267857143,13.4462679 0.0267857143,30 C0.0267857143,46.5535714 13.4462679,59.9732143 30,59.9732143 Z" id="Path" fill="#006241" fill-rule="nonzero"></path>
                        <path d="M25.3934464,49.1930357 C25.3934464,45.9514286 21.613125,43.5101786 21.613125,40.4571429 C21.613125,37.4056607 25.1380714,36.3408214 25.1380714,32.6205536 C25.1380714,29.4654643 22.5139286,26.8211786 22.5139286,23.5667679 C22.5139286,20.91975 23.2715893,19.1326071 24.6909643,17.3635179 C24.8241964,17.1977143 24.6698571,17.0288571 24.479625,17.1685179 C24.4374107,17.1994821 24.3951964,17.232 24.3527143,17.2641964 C22.349625,18.8096786 20.9772857,21.3043929 20.9772857,24.0766607 C20.9772857,27.6343929 23.2634464,29.4182143 23.2634464,32.6386071 C23.2634464,35.8589464 19.540125,37.3195714 19.540125,40.4571429 C19.540125,43.5962679 23.201625,46.0960714 23.201625,49.0060714 C23.201625,51.6664286 19.7044286,55.0285714 20.0942143,58.2889286 C20.8602857,58.5557143 21.6378214,58.7983929 22.4307321,59.0035714 C21.8172321,55.53375 25.3934464,52.1983929 25.3934464,49.1930357 Z" id="Path" fill="#FFFFFF" fill-rule="nonzero"></path>
                        <path d="M17.6442321,40.4571429 C17.6442321,37.5470893 21.4356964,35.8086429 21.4356964,32.6858036 C21.4356964,29.5611429 19.55325,27.7902321 19.55325,24.6009107 C19.55325,21.7618393 20.5514464,19.8889286 22.2747321,17.8257857 C21.8912679,18.0241071 21.5725714,18.2510357 21.2487857,18.5351786 C19.4230179,20.1420536 18.2393571,22.6581429 18.2393571,25.1429464 C18.2393571,28.5351429 19.8848571,30.05775 19.8848571,32.7050893 C19.8848571,35.352375 16.0201607,37.4414464 16.0201607,40.4571429 C16.0201607,43.4728393 19.3711607,46.0371429 19.3711607,48.5903571 C19.3711607,50.8783929 16.492875,53.9228571 16.3898036,56.7096429 C16.9231071,56.9807143 17.4639643,57.2383929 18.015375,57.4778571 C18.0651429,54.25125 21.1725,51.5335714 21.1725,48.8148214 C21.1725,45.825 17.6442321,43.3690179 17.6442321,40.4571429 Z" id="Path" fill="#FFFFFF" fill-rule="nonzero"></path>
                        <path d="M16.7923393,46.3151786 C17.9123571,49.8407143 13.7615357,51.9230357 13.3850357,54.96 C13.8019821,55.2369643 14.22675,55.5032143 14.6581607,55.7592857 C14.8782321,53.2242857 17.5988571,51.2008929 17.5988571,48.6492857 C17.5988571,47.7155357 17.1598929,46.9366071 16.7923393,46.3151786 Z" id="Path" fill="#FFFFFF" fill-rule="nonzero"></path>
                        <path d="M43.1428393,46.3151786 C42.7771607,46.9366071 42.3381964,47.7155357 42.3381964,48.6492857 C42.3381964,51.2014286 45.0573214,53.2248214 45.2769643,55.7603571 C45.7092857,55.5032143 46.1341071,55.2369643 46.5519643,54.96 C46.1753571,51.9230357 42.0231429,49.8407143 43.1428393,46.3151786 Z" id="Path" fill="#FFFFFF" fill-rule="nonzero"></path>
                        <g id="Clipped" transform="translate(23.035714, 32.678571)">
                            <mask id="mask-4" fill="white">
                                <use xlink:href="#path-3"></use>
                            </mask>
                            <g id="Path"></g>
                            <path d="M13.3645179,7.77857143 C13.3645179,4.96092857 10.5550179,4.03907143 10.1875179,1.15307143 C10.1356607,0.760285714 9.81851786,0.468053571 9.382875,0.541178571 C8.81185714,0.645 8.08076786,1.02005357 6.933,1.02005357 C5.78496429,1.02005357 5.05323214,0.645 4.48103571,0.541178571 C4.04689286,0.468053571 3.72975,0.760285714 3.67789286,1.15307143 C3.31039286,4.03907143 0.500839286,4.96092857 0.500839286,7.77857143 C0.500839286,10.7683929 4.41289286,13.4951786 4.41289286,16.55625 C4.41289286,19.3789286 0.911196429,22.4796429 1.57473214,26.7942857 C3.31430357,27.1076786 5.10267857,27.2801786 6.933,27.2801786 C8.76208929,27.2801786 10.5501964,27.1076786 12.289125,26.7942857 C12.9527143,22.4801786 9.45096429,19.3789286 9.45096429,16.55625 C9.45096429,13.4951786 13.3645179,10.7683929 13.3645179,7.77857143 Z" id="Path" fill="#FFFFFF" fill-rule="nonzero" mask="url(#mask-4)"></path>
                        </g>
                        <path d="M10.1717143,52.4930357 C10.5051964,52.7860714 10.8440357,53.0726786 11.1904286,53.3507143 C11.5172679,52.7882143 12.0168214,52.1019643 12.5829643,51.7183929 C12.318,51.4017857 12.061125,51.0771429 11.8153929,50.7444643 C11.1488571,51.1478571 10.5555,51.9010714 10.1717143,52.4930357 Z" id="Path" fill="#FFFFFF" fill-rule="nonzero"></path>
                        <path d="M40.3967679,40.4571429 C40.3967679,37.3195714 36.6734464,35.8589464 36.6734464,32.6386071 C36.6734464,29.4182143 38.9592857,27.6343929 38.9592857,24.0766071 C38.9592857,21.3043929 37.5872679,18.8096786 35.5823571,17.2644643 C35.5401964,17.232 35.4994821,17.1994821 35.4557679,17.1684643 C35.2670357,17.029125 35.1126964,17.1976607 35.2459286,17.3635179 C36.6638036,19.1326071 37.4214107,20.91975 37.4214107,23.5667679 C37.4214107,26.8211786 34.797,29.4654643 34.797,32.6208214 C34.797,36.3408214 38.3222679,37.4056071 38.3222679,40.4571429 C38.3222679,43.5101786 34.5434464,45.9514286 34.5434464,49.1930357 C34.5434464,52.1983929 38.1196607,55.53375 37.5061607,59.0035714 C38.2984821,58.7983929 39.075375,58.5557143 39.841125,58.2894643 C40.2327857,55.0291071 36.7337679,51.6664286 36.7337679,49.0060714 C36.7337679,46.0960714 40.3967679,43.5962679 40.3967679,40.4571429 Z" id="Path" fill="#FFFFFF" fill-rule="nonzero"></path>
                        <path d="M43.9168393,40.4571429 C43.9168393,37.4414464 40.0521429,35.3524286 40.0521429,32.7050893 C40.0521429,30.05775 41.6943214,28.5351429 41.6943214,25.1429464 C41.6943214,22.6581429 40.5137143,20.1420536 38.6863929,18.5351786 C38.3626071,18.2510357 38.0457321,18.0241071 37.6619464,17.8257857 C39.3855536,19.8889286 40.38375,21.7618393 40.38375,24.6009107 C40.38375,27.7902857 38.5009821,29.5611429 38.5009821,32.6858036 C38.5009821,35.8086964 42.2924464,37.5470893 42.2924464,40.4571429 C42.2924464,43.3690179 38.7611786,45.825 38.7611786,48.8148214 C38.7611786,51.5341071 41.8703571,54.2517857 41.920125,57.4783929 C42.4715357,57.2383929 43.0129821,56.9807143 43.5469286,56.7091071 C43.4438036,53.9228571 40.5658393,50.8783929 40.5658393,48.5903571 C40.5658393,46.0371429 43.9168393,43.4728393 43.9168393,40.4571429 Z" id="Path" fill="#FFFFFF" fill-rule="nonzero"></path>
                        <path d="M8.31492857,31.5008036 C4.84366071,31.3500536 3.62780357,34.36275 0.244821429,33.8083393 C0.339214286,34.5574821 0.452839286,35.30025 0.601767857,36.0310179 C3.78696429,36.42525 4.942875,33.7502679 7.809375,33.7520893 C7.93778571,32.987625 8.10691071,32.2360714 8.31492857,31.5008036 Z" id="Path" fill="#FFFFFF" fill-rule="nonzero"></path>
                        <path d="M9.94403571,47.7139286 C8.79567857,48.0155357 8.0115,49.0976786 7.42810714,49.7464286 C7.74648214,50.1085714 8.073,50.4632143 8.40798214,50.8092857 C8.93282143,50.1557143 9.60814286,49.1614286 10.5961071,48.8941071 C10.3667143,48.5078571 10.1490536,48.1151786 9.94403571,47.7139286 Z" id="Path" fill="#FFFFFF" fill-rule="nonzero"></path>
                        <path d="M9.05630357,29.2820357 C9.39455357,28.4248393 9.78798214,27.5957143 10.2302679,26.7987321 C5.73278571,26.0104821 4.20332143,29.7599464 0.0214821429,29.1902143 C0.0136071429,29.4737143 5.35714286e-05,29.7560357 5.35714286e-05,30.0416786 C5.35714286e-05,30.5918036 0.01725,31.1380714 0.0465,31.6810179 C3.98866071,32.1216429 5.46653571,28.8859286 9.05630357,29.2820357 Z" id="Path" fill="#FFFFFF" fill-rule="nonzero"></path>
                        <path d="M7.49217857,37.5208929 C7.49217857,37.0989643 7.50514286,36.6799821 7.52807143,36.2646429 C4.61394643,36.1966607 3.724875,38.6925536 1.20835714,38.4497143 C1.39917857,39.1013036 1.60510714,39.7465714 1.83846429,40.3791964 C4.20814286,40.48725 5.01642857,38.1911786 7.50364286,38.220375 C7.4955,37.9883036 7.49217857,37.7562857 7.49217857,37.5208929 Z" id="Path" fill="#FFFFFF" fill-rule="nonzero"></path>
                        <g id="Clipped" transform="translate(49.285714, 26.250000)">
                            <mask id="mask-6" fill="white">
                                <use xlink:href="#path-5"></use>
                            </mask>
                            <g id="Path"></g>
                            <path d="M10.6296429,2.94010714 C6.44625,3.50983929 4.91678571,-0.239625 0.419464286,0.548625 C0.861428571,1.34560714 1.25678571,2.17505357 1.59482143,3.03192857 C5.18410714,2.63614286 6.66107143,5.87185714 10.6044643,5.43091071 C10.6333929,4.88796429 10.6510714,4.34201786 10.6510714,3.79157143 C10.6510714,3.50592857 10.6371429,3.22360714 10.6296429,2.94010714 Z" id="Path" fill="#FFFFFF" fill-rule="nonzero" mask="url(#mask-6)"></path>
                        </g>
                        <path d="M9.50019643,46.8021429 C9.67082143,47.175 9.92619643,47.3180357 10.3991786,47.3180357 C11.8625893,47.3180357 14.1291429,46.3719643 15.8687143,44.6367857 C14.7357321,42.5784643 14.3926607,41.5316786 14.3926607,40.45725 C14.3926607,37.7319643 18.2685,35.441625 18.2685,32.7976071 C18.2685,30.1520893 16.9323214,28.639125 16.9323214,25.7726786 C16.9323214,23.190375 18.1011964,20.9601964 19.6245536,19.0806429 C19.2474107,19.3159821 18.919125,19.5805714 18.5971071,19.9053214 C16.9386429,21.5801786 15.8412857,24.0294643 15.8412857,26.2888393 C15.8412857,29.3322321 16.9841786,30.5821607 16.9841786,32.8382143 C16.9841786,34.9173214 12.5732143,37.8065893 13.072125,40.6453393 C11.5324821,42.0460714 9.69375,42.6711964 8.08741071,42.6711964 C8.22701786,43.2619821 8.38982143,43.8413571 8.57523214,44.4128571 C6.76542857,44.5082679 5.93635714,46.0473214 4.98273214,46.5583929 C5.28332143,47.01 5.59264286,47.4557143 5.91675,47.8901786 C6.78894643,47.3180357 7.50948214,45.8898214 9.08383929,45.8282143 C9.21557143,46.1555357 9.35394643,46.4807143 9.50019643,46.8021429 Z" id="Path" fill="#FFFFFF" fill-rule="nonzero"></path>
                        <path d="M8.004375,42.2961429 C7.88560714,41.7507857 7.78639286,41.1973393 7.70833929,40.6390179 C5.12035714,40.4653393 4.530375,42.6413571 2.83119643,42.7388571 C3.09166071,43.2926786 3.36514286,43.8388929 3.65817857,44.3734286 C5.26810714,44.2069821 5.75319643,42.13875 8.004375,42.2961429 Z" id="Path" fill="#FFFFFF" fill-rule="nonzero"></path>
                        <path d="M24.6681964,22.2798214 C25.2503571,21.697125 26.481,21.7215 27.7574464,22.1922321 C27.812625,21.5575179 26.6760536,20.8661786 25.53975,20.8661786 C24.7136786,20.8661786 24.3039643,21.1436786 24.3039643,21.5460536 C24.3039643,21.8058214 24.3917143,22.0315179 24.6681964,22.2798214 Z" id="Path" fill="#FFFFFF" fill-rule="nonzero"></path>
                        <path d="M34.3970893,20.8660179 C33.7305,20.8660179 32.9484643,21.0706607 32.4558214,21.6175179 C32.4036964,21.7653214 32.4036964,21.9859286 32.4769286,22.1351786 C33.6864643,21.7213929 34.754625,21.7051071 35.2686964,22.2796607 C35.5433036,22.0313571 35.6310536,21.8059286 35.6310536,21.5462143 C35.6310536,21.1435179 35.2231607,20.8660179 34.3970893,20.8660179 Z" id="Path" fill="#FFFFFF" fill-rule="nonzero"></path>
                        <path d="M31.4575714,26.2499464 C31.4509821,26.3375357 31.4184107,26.4154821 31.3550893,26.4853393 C30.823875,26.5666071 30.5832857,26.8618393 29.9685536,26.8618393 C29.3523214,26.8618393 29.1135536,26.5666071 28.58025,26.4853393 C28.5184286,26.4154821 28.4858571,26.3375357 28.4792143,26.2499464 C28.5784286,26.0763214 29.0385,25.8896786 29.2760357,25.8881786 C29.5232679,25.8864107 29.604375,26.02425 29.9685536,26.02425 C30.3327321,26.02425 30.4141607,25.8864107 30.6613929,25.8881786 C30.8986607,25.8896786 31.3584107,26.0763214 31.4575714,26.2499464 Z M32.1437143,27.8730536 C32.1437143,27.8730536 32.2996071,27.9299464 32.3420893,28.0696071 C31.7144464,28.55325 31.2788036,29.6502857 29.9685536,29.6502857 C28.6564821,29.6502857 28.2223393,28.55325 27.5931429,28.0696071 C27.6353571,27.9299464 27.7930179,27.8730536 27.7930179,27.8730536 C27.7930179,27.8730536 28.6157679,28.0662857 29.9685536,28.0662857 C31.3209643,28.0662857 32.1437143,27.8730536 32.1437143,27.8730536 Z M35.6913214,20.0268214 C35.0802321,17.9979643 32.7500357,16.4269286 29.9685536,16.4269286 C27.18675,16.4269286 24.856875,17.9979643 24.2455179,20.0268214 C24.1984821,20.1827143 24.26175,20.2832143 24.4420714,20.2022679 C24.943125,19.9780714 25.512,19.8694286 26.1315536,19.8694286 C27.2663571,19.8694286 28.266375,20.2865357 28.8566786,21.0088929 C29.119875,21.8708571 29.1409821,23.1189643 28.8452143,23.8298571 C28.3785536,23.7260357 28.2094286,23.3639464 27.7541786,23.3639464 C27.2974286,23.3639464 26.9443929,23.685375 26.1704464,23.685375 C25.3965536,23.685375 25.3055357,23.3202857 24.7984286,23.3202857 C24.1999821,23.3202857 24.0893036,23.9355 24.0893036,24.6301071 C24.0893036,27.7238036 26.9380179,31.9827857 29.9685536,31.9827857 C32.9990893,31.9827857 35.8474821,27.7238036 35.8474821,24.6301071 C35.8474821,23.9355 35.7046071,23.3413929 35.0784107,23.260125 C34.7679107,23.4840536 34.4817857,23.685375 33.7663393,23.685375 C32.9924464,23.685375 32.7796071,23.3639464 32.3225357,23.3639464 C31.7729464,23.3639464 31.8283929,24.5229643 31.173,24.588 C30.7394464,23.5427143 30.7165179,22.2034286 31.07925,21.0088929 C31.6704643,20.2865357 32.6704821,19.8694286 33.8055536,19.8694286 C34.4232857,19.8694286 34.9988036,19.9780714 35.4929464,20.2022679 C35.6735357,20.2832143 35.7368571,20.1827143 35.6913214,20.0268214 Z" id="Shape" fill="#FFFFFF" fill-rule="nonzero"></path>
                        <g id="Clipped" transform="translate(16.071429, 1.607143)">
                            <mask id="mask-8" fill="white">
                                <use xlink:href="#path-7"></use>
                            </mask>
                            <g id="Path"></g>
                            <path d="M10.7900893,11.2455 C10.894125,11.169375 13.8971786,8.887125 13.8971786,8.887125 C13.8971786,8.887125 16.8999643,11.169375 17.0021786,11.2455 C17.1191786,11.3315893 17.0606786,11.4775179 16.9111071,11.4516429 C16.6476429,11.4047143 15.3811071,11.1919286 13.8971786,11.1919286 C12.4126607,11.1919286 11.146125,11.4047143 10.8826607,11.4516429 C10.7331429,11.4775179 10.6746429,11.3315893 10.7900893,11.2455 Z M3.37601786,15.6297321 C3.47341071,15.8488393 3.68325,15.9201964 3.910875,15.8082321 C6.91875,14.3165893 10.3104643,13.4757321 13.8972321,13.4757321 C17.4833571,13.4757321 20.8735714,14.3165893 23.8829464,15.8082321 C24.1105714,15.9201964 24.3189107,15.8488393 24.4163036,15.6297321 C25.2812679,13.6932857 26.4489107,11.8899107 27.7673036,10.1987679 C25.5706607,10.3543393 23.6619643,11.1076607 22.1205,12.3624107 C22.7758929,10.5069643 23.6082857,8.885625 24.6602143,7.31276786 C21.8669464,7.608 19.5274286,8.63073214 17.8216071,10.3739464 L16.4851607,6.879375 L19.450875,4.26455357 L15.4803214,3.98528571 L13.8972321,0.300803571 L12.3135,3.98528571 L8.343,4.26455357 L11.3071607,6.879375 L9.97221429,10.3739464 C8.26521429,8.63073214 5.92719643,7.608 3.13216071,7.31276786 C4.18403571,8.885625 5.01642857,10.5069643 5.67332143,12.3624107 C4.13035714,11.1076607 2.22316071,10.3543393 0.0250714286,10.1987679 C1.34191071,11.8899107 2.51110714,13.6932857 3.37601786,15.6297321 Z" id="Shape" fill="#FFFFFF" fill-rule="nonzero" mask="url(#mask-8)"></path>
                        </g>
                        <path d="M48.63375,25.0228929 C52.9435714,23.5313036 55.7726786,27.80175 59.09625,26.8052679 C55.8723214,23.388375 53.2510714,19.4995179 53.5955357,15.0229286 C53.6185714,14.7598929 53.38125,14.6105893 53.1567857,14.7680357 C51.5142857,15.9041786 50.3635714,17.7855536 50.0089286,19.9052679 C47.72625,18.4410536 45.05625,18.2333571 42.850125,19.1341607 C45.1216071,20.7248036 47.0855357,22.7214107 48.63375,25.0228929 Z" id="Path" fill="#FFFFFF" fill-rule="nonzero"></path>
                        <path d="M11.2999821,25.0228929 C12.8495893,22.7214107 14.8134643,20.7248036 17.0848393,19.1341607 C14.8801071,18.2333571 12.2089286,18.4410536 9.92614286,19.9052679 C9.573375,17.7855536 8.42201786,15.9041786 6.78016071,14.7680357 C6.55403571,14.6105893 6.31826786,14.7598929 6.337875,15.0229286 C6.68576786,19.4995179 4.06317857,23.388375 0.838821429,26.8052679 C4.16239286,27.80175 6.9915,23.5313036 11.2999821,25.0228929 Z" id="Path" fill="#FFFFFF" fill-rule="nonzero"></path>
                        <path d="M51.8496429,42.6711429 C50.2414286,42.6711429 48.4044643,42.0463393 46.8642857,40.6456071 C47.3619643,37.8065893 42.9494464,34.9172679 42.9494464,32.8381607 C42.9494464,30.5821071 44.0938929,29.3321786 44.0938929,26.2887857 C44.0938929,24.0294107 42.9949821,21.580125 41.3398393,19.9052679 C41.017875,19.5805179 40.6892143,19.3159286 40.3120714,19.0805893 C41.8339821,20.9601429 43.004625,23.1903214 43.004625,25.772625 C43.004625,28.6390714 41.668125,30.1520357 41.668125,32.7975536 C41.668125,35.4418393 45.5426786,37.7319107 45.5426786,40.4571964 C45.5426786,41.5316786 45.1992857,42.5787321 44.0679643,44.6367857 C45.8078571,46.3719643 48.0739286,47.3180357 49.5358929,47.3180357 C50.0110714,47.3180357 50.2660714,47.175 50.4348214,46.8021429 C50.5810714,46.4807143 50.7198214,46.1560714 50.8516071,45.8282143 C52.425,45.8898214 53.1471429,47.3196429 54.0182143,47.89125 C54.4141071,47.4096429 54.5705357,47.2023214 54.9530357,46.5589286 C53.9978571,46.0483929 53.1701786,44.5085357 51.3616071,44.4128571 C51.5469643,43.8413036 51.7098214,43.2619286 51.8496429,42.6711429 Z" id="Path" fill="#FFFFFF" fill-rule="nonzero"></path>
                        <path d="M48.1194643,50.7444643 C47.8741071,51.0771429 47.6175,51.4017857 47.3523214,51.7183929 C47.9201786,52.1025 48.4205357,52.78875 48.7451786,53.35125 C49.09125,53.0732143 49.4303571,52.7866071 49.7641071,52.4935714 C49.3816071,51.9016071 48.7864286,51.1478571 48.1194643,50.7444643 Z" id="Path" fill="#FFFFFF" fill-rule="nonzero"></path>
                        <path d="M49.9928571,47.7139286 C49.7876786,48.1151786 49.5685714,48.5078571 49.3392857,48.8941071 C50.3271429,49.1614286 51.0042857,50.15625 51.5276786,50.8103571 C51.8630357,50.4632143 52.1898214,50.1085714 52.5085714,49.7458929 C51.9235714,49.0976786 51.1392857,48.0155357 49.9928571,47.7139286 Z" id="Path" fill="#FFFFFF" fill-rule="nonzero"></path>
                        <path d="M51.6219643,31.5008036 C51.8282143,32.2360714 51.9958929,32.987625 52.1260714,33.7520893 C54.99375,33.7502679 56.1482143,36.42525 59.3351786,36.0310179 C59.4835714,35.30025 59.5976786,34.5574821 59.6919643,33.8083393 C56.3073214,34.36275 55.09125,31.3500536 51.6219643,31.5008036 Z" id="Path" fill="#FFFFFF" fill-rule="nonzero"></path>
                        <path d="M52.4089286,36.2645893 C52.4319643,36.68025 52.4442857,37.0989107 52.4442857,37.5208393 C52.4442857,37.7562321 52.4383929,37.98825 52.4319643,38.2205893 C54.91875,38.1913929 55.72875,40.485375 58.0976786,40.3791429 C58.33125,39.7468393 58.5375,39.10125 58.7282143,38.4496607 C56.2125,38.6937321 55.32375,36.1966071 52.4089286,36.2645893 Z" id="Path" fill="#FFFFFF" fill-rule="nonzero"></path>
                        <path d="M52.2267857,40.6390179 C52.1485714,41.1973393 52.0510714,41.7507857 51.9305357,42.2961429 C54.1842857,42.13875 54.6675,44.2078929 56.2783929,44.37375 C56.5708929,43.8392143 56.8446429,43.2926786 57.105,42.7388571 C55.4030357,42.6425893 54.8169643,40.4653393 52.2267857,40.6390179 Z" id="Path" fill="#FFFFFF" fill-rule="nonzero"></path>
                    </g>
                </g>
                <path d="M48.6417857,57.7558929 L47.8751786,57.7558929 L47.8751786,59.80875 L47.3860714,59.80875 L47.3860714,57.7558929 L46.6071429,57.7558929 L46.6071429,57.3214286 L48.6417857,57.3214286 L48.6417857,57.7558929 Z M51.92625,59.80875 L51.43125,59.80875 L51.43125,57.9551786 L51.4189286,57.9551786 L50.7005357,59.80875 L50.3683929,59.80875 L49.6441071,57.9551786 L49.6317857,57.9551786 L49.6317857,59.80875 L49.1426786,59.80875 L49.1426786,57.3214286 L49.8551786,57.3214286 L50.5376786,59.0844643 L51.2196429,57.3214286 L51.92625,57.3214286 L51.92625,59.80875 Z" id="Shape" fill="#006241"></path>
            </g>
        </g>
    </g>
</svg>